<svg xmlns="http://www.w3.org/2000/svg" viewBox="0 0 313.1094 165.1953" width="313.1094" height="165.1953">
  <defs>
    <filter id="blueGlow" x="-30%" y="-30%" width="160%" height="160%">
      <feGaussianBlur in="SourceGraphic" stdDeviation="6" result="blur"/>
      <feColorMatrix in="blur" type="matrix"
        values="0 0 0 0 0.2
                0 0 0 0 0.5
                0 0 0 0 1
                0 0 0 1.2 0" result="coloredBlur"/>
      <feMerge>
        <feMergeNode in="coloredBlur"/>
        <feMergeNode in="coloredBlur"/>
        <feMergeNode in="SourceGraphic"/>
      </feMerge>
    </filter>
  </defs>
  <path d="M34.0234375 126.25 10.703125 60.7421875H35.4296875L43.92578125 90.625Q45.21484375 95.078125 46.26953125 99.6484375Q47.32421875 104.21875 48.26171875 109.140625Q49.19921875 104.21875 50.224609375 99.677734375Q51.25 95.13671875 52.48046875 90.625L60.7421875 60.7421875H85.1171875L61.6796875 126.25Z M120.37890625 127.421875Q109.71484375 127.421875 102.09765625 123.173828125Q94.48046875 118.92578125 90.466796875 111.337890625Q86.453125 103.75 86.453125 93.671875Q86.453125 83.59375 90.466796875 76.005859375Q94.48046875 68.41796875 102.09765625 64.169921875Q109.71484375 59.921875 120.37890625 59.921875Q131.04296875 59.921875 138.6015625 64.169921875Q146.16015625 68.41796875 150.173828125 76.005859375Q154.1875 83.59375 154.1875 93.671875Q154.1875 103.75 150.173828125 111.337890625Q146.16015625 118.92578125 138.6015625 123.173828125Q131.04296875 127.421875 120.37890625 127.421875ZM120.37890625 109.84375Q124.94921875 109.84375 127.556640625 105.537109375Q130.1640625 101.23046875 130.1640625 93.5546875Q130.1640625 85.8203125 127.556640625 81.66015625Q124.94921875 77.5 120.37890625 77.5Q115.75 77.5 113.11328125 81.66015625Q110.4765625 85.8203125 110.4765625 93.5546875Q110.4765625 101.23046875 113.11328125 105.537109375Q115.75 109.84375 120.37890625 109.84375Z M192.37890625000003 127.421875Q181.71484375000003 127.421875 174.09765625000003 123.173828125Q166.48046875000003 118.92578125 162.46679687500003 111.337890625Q158.45312500000003 103.75 158.45312500000003 93.671875Q158.45312500000003 83.59375 162.46679687500003 76.005859375Q166.48046875000003 68.41796875 174.09765625000003 64.169921875Q181.71484375000003 59.921875 192.37890625000003 59.921875Q203.04296875000003 59.921875 210.60156250000003 64.169921875Q218.16015625000003 68.41796875 222.17382812500003 76.005859375Q226.18750000000003 83.59375 226.18750000000003 93.671875Q226.18750000000003 103.75 222.17382812500003 111.337890625Q218.16015625000003 118.92578125 210.60156250000003 123.173828125Q203.04296875000003 127.421875 192.37890625000003 127.421875ZM192.37890625000003 109.84375Q196.94921875000003 109.84375 199.55664062500003 105.537109375Q202.16406250000003 101.23046875 202.16406250000003 93.5546875Q202.16406250000003 85.8203125 199.55664062500003 81.66015625Q196.94921875000003 77.5 192.37890625000003 77.5Q187.75000000000003 77.5 185.11328125000003 81.66015625Q182.47656250000003 85.8203125 182.47656250000003 93.5546875Q182.47656250000003 101.23046875 185.11328125000003 105.537109375Q187.75000000000003 109.84375 192.37890625000003 109.84375Z M232.85546875000003 148.984375 238.01171875000003 132.2265625 241.05859375000003 133.046875Q246.80078125000003 134.5703125 250.14062500000003 132.900390625Q253.48046875000003 131.23046875 252.42578125000003 128.18359375L251.78125000000003 126.30859375L227.52343750000003 60.7421875H252.25000000000003L260.74609375 90.625Q261.91796875 94.78515625 262.708984375 98.974609375Q263.5 103.1640625 264.203125 107.6171875Q265.19921875 103.10546875 266.283203125 98.916015625Q267.3671875 94.7265625 268.65625 90.625L278.03125 60.7421875H302.40625L275.39453125 132.2265625Q273.40234375 137.55859375 270.00390625 141.865234375Q266.60546875 146.171875 261.185546875 148.69140625Q255.76562500000003 151.2109375 247.50390625000003 151.2109375Q243.46093750000003 151.2109375 239.53515625000003 150.625Q235.60937500000003 150.0390625 232.85546875000003 148.984375Z" fill="white" filter="url(#blueGlow)"/>
</svg>